<mxfile host="app.diagrams.net" modified="2024-07-22T09:53:31.317Z" agent="Mozilla/5.0 (Windows NT 10.0; Win64; x64) AppleWebKit/537.36 (KHTML, like Gecko) Chrome/126.0.0.0 Safari/537.36" etag="_qs8bbG8SZXrtPxxCaM6" version="24.7.1" type="device">
  <diagram name="Pagina-1" id="RsO85FYGLpo8hcL4aFXO">
    <mxGraphModel dx="220" dy="305" grid="1" gridSize="10" guides="1" tooltips="1" connect="1" arrows="1" fold="1" page="1" pageScale="1" pageWidth="827" pageHeight="1169" math="0" shadow="0">
      <root>
        <mxCell id="0" />
        <mxCell id="1" parent="0" />
        <mxCell id="4cNkjvatPxcgbZi9Mzdt-4" style="edgeStyle=orthogonalEdgeStyle;rounded=0;orthogonalLoop=1;jettySize=auto;html=1;entryX=0.5;entryY=0;entryDx=0;entryDy=0;endSize=3;" parent="1" source="cqbc1yN2gM6fxvFp73qe-1" target="4cNkjvatPxcgbZi9Mzdt-3" edge="1">
          <mxGeometry relative="1" as="geometry" />
        </mxCell>
        <mxCell id="cqbc1yN2gM6fxvFp73qe-1" value="" style="html=1;verticalLabelPosition=bottom;align=center;labelBackgroundColor=#ffffff;verticalAlign=top;strokeWidth=2;shadow=0;dashed=0;shape=mxgraph.ios7.icons.smartphone;" parent="1" vertex="1">
          <mxGeometry x="246" y="280" width="18" height="30" as="geometry" />
        </mxCell>
        <mxCell id="cqbc1yN2gM6fxvFp73qe-2" value="Smartphone" style="text;html=1;align=center;verticalAlign=middle;whiteSpace=wrap;rounded=0;strokeColor=default;fontSize=8;" parent="1" vertex="1">
          <mxGeometry x="230" y="260" width="50" height="15" as="geometry" />
        </mxCell>
        <mxCell id="4cNkjvatPxcgbZi9Mzdt-3" value="" style="swimlane;startSize=0;dashed=1;dashPattern=1 1;" parent="1" vertex="1">
          <mxGeometry x="78.5" y="330" width="351.5" height="140" as="geometry">
            <mxRectangle x="78.5" y="340" width="50" height="40" as="alternateBounds" />
          </mxGeometry>
        </mxCell>
        <mxCell id="4cNkjvatPxcgbZi9Mzdt-9" style="edgeStyle=orthogonalEdgeStyle;rounded=0;orthogonalLoop=1;jettySize=auto;html=1;endSize=3;" parent="4cNkjvatPxcgbZi9Mzdt-3" source="4cNkjvatPxcgbZi9Mzdt-5" target="4cNkjvatPxcgbZi9Mzdt-7" edge="1">
          <mxGeometry relative="1" as="geometry" />
        </mxCell>
        <mxCell id="4cNkjvatPxcgbZi9Mzdt-5" value="" style="swimlane;startSize=0;" parent="4cNkjvatPxcgbZi9Mzdt-3" vertex="1">
          <mxGeometry x="11.5" y="20" width="130" height="110" as="geometry" />
        </mxCell>
        <mxCell id="4cNkjvatPxcgbZi9Mzdt-6" value="Preliminary phase" style="rounded=0;whiteSpace=wrap;html=1;fontSize=8;" parent="4cNkjvatPxcgbZi9Mzdt-5" vertex="1">
          <mxGeometry x="30" y="-10" width="70" height="20" as="geometry" />
        </mxCell>
        <mxCell id="4cNkjvatPxcgbZi9Mzdt-12" style="edgeStyle=orthogonalEdgeStyle;rounded=0;orthogonalLoop=1;jettySize=auto;html=1;entryX=0.5;entryY=0;entryDx=0;entryDy=0;endSize=3;" parent="4cNkjvatPxcgbZi9Mzdt-5" source="4cNkjvatPxcgbZi9Mzdt-10" target="4cNkjvatPxcgbZi9Mzdt-11" edge="1">
          <mxGeometry relative="1" as="geometry" />
        </mxCell>
        <mxCell id="4cNkjvatPxcgbZi9Mzdt-10" value="Keyboard&lt;div style=&quot;font-size: 8px;&quot;&gt;detection&lt;/div&gt;" style="rounded=0;whiteSpace=wrap;html=1;fontSize=8;" parent="4cNkjvatPxcgbZi9Mzdt-5" vertex="1">
          <mxGeometry x="11.5" y="20" width="50" height="30" as="geometry" />
        </mxCell>
        <mxCell id="4cNkjvatPxcgbZi9Mzdt-11" value="Tiles&lt;div&gt;overlay&lt;/div&gt;" style="rounded=0;whiteSpace=wrap;html=1;fontSize=8;" parent="4cNkjvatPxcgbZi9Mzdt-5" vertex="1">
          <mxGeometry x="11.5" y="70" width="50" height="30" as="geometry" />
        </mxCell>
        <mxCell id="4cNkjvatPxcgbZi9Mzdt-17" style="edgeStyle=orthogonalEdgeStyle;rounded=0;orthogonalLoop=1;jettySize=auto;html=1;entryX=1;entryY=0.5;entryDx=0;entryDy=0;endSize=3;" parent="4cNkjvatPxcgbZi9Mzdt-5" source="4cNkjvatPxcgbZi9Mzdt-13" target="4cNkjvatPxcgbZi9Mzdt-11" edge="1">
          <mxGeometry relative="1" as="geometry">
            <Array as="points">
              <mxPoint x="102" y="85" />
            </Array>
          </mxGeometry>
        </mxCell>
        <mxCell id="4cNkjvatPxcgbZi9Mzdt-13" value="Keyboard&lt;div&gt;preset&lt;/div&gt;" style="rounded=0;whiteSpace=wrap;html=1;fontSize=8;" parent="4cNkjvatPxcgbZi9Mzdt-5" vertex="1">
          <mxGeometry x="71.5" y="20" width="50" height="30" as="geometry" />
        </mxCell>
        <mxCell id="4cNkjvatPxcgbZi9Mzdt-7" value="" style="swimlane;startSize=0;" parent="4cNkjvatPxcgbZi9Mzdt-3" vertex="1">
          <mxGeometry x="191.5" y="20" width="148.5" height="110" as="geometry" />
        </mxCell>
        <mxCell id="4cNkjvatPxcgbZi9Mzdt-8" value="Real-time phase" style="rounded=0;whiteSpace=wrap;html=1;fontSize=8;" parent="4cNkjvatPxcgbZi9Mzdt-7" vertex="1">
          <mxGeometry x="38.25" y="-10" width="70" height="20" as="geometry" />
        </mxCell>
        <mxCell id="4cNkjvatPxcgbZi9Mzdt-28" style="edgeStyle=orthogonalEdgeStyle;rounded=0;orthogonalLoop=1;jettySize=auto;html=1;entryX=0.5;entryY=0;entryDx=0;entryDy=0;endSize=3;" parent="4cNkjvatPxcgbZi9Mzdt-7" source="4cNkjvatPxcgbZi9Mzdt-22" target="4cNkjvatPxcgbZi9Mzdt-23" edge="1">
          <mxGeometry relative="1" as="geometry">
            <Array as="points">
              <mxPoint x="73.25" y="60" />
              <mxPoint x="33.25" y="60" />
            </Array>
          </mxGeometry>
        </mxCell>
        <mxCell id="4cNkjvatPxcgbZi9Mzdt-29" style="edgeStyle=orthogonalEdgeStyle;rounded=0;orthogonalLoop=1;jettySize=auto;html=1;entryX=0.5;entryY=0;entryDx=0;entryDy=0;endSize=3;" parent="4cNkjvatPxcgbZi9Mzdt-7" source="4cNkjvatPxcgbZi9Mzdt-22" target="4cNkjvatPxcgbZi9Mzdt-26" edge="1">
          <mxGeometry relative="1" as="geometry">
            <Array as="points">
              <mxPoint x="73.25" y="60" />
              <mxPoint x="113.25" y="60" />
            </Array>
          </mxGeometry>
        </mxCell>
        <mxCell id="4cNkjvatPxcgbZi9Mzdt-22" value="Hand&lt;div&gt;detection&lt;/div&gt;" style="rounded=0;whiteSpace=wrap;html=1;fontSize=8;" parent="4cNkjvatPxcgbZi9Mzdt-7" vertex="1">
          <mxGeometry x="48.25" y="20" width="50" height="30" as="geometry" />
        </mxCell>
        <mxCell id="4cNkjvatPxcgbZi9Mzdt-23" value="Touch&lt;div&gt;detection&lt;/div&gt;" style="rounded=0;whiteSpace=wrap;html=1;fontSize=8;" parent="4cNkjvatPxcgbZi9Mzdt-7" vertex="1">
          <mxGeometry x="8.25" y="70" width="50" height="30" as="geometry" />
        </mxCell>
        <mxCell id="4cNkjvatPxcgbZi9Mzdt-26" value="&lt;div&gt;Note detection&lt;/div&gt;" style="rounded=0;whiteSpace=wrap;html=1;fontSize=8;" parent="4cNkjvatPxcgbZi9Mzdt-7" vertex="1">
          <mxGeometry x="88.25" y="70" width="50" height="30" as="geometry" />
        </mxCell>
        <mxCell id="4cNkjvatPxcgbZi9Mzdt-21" value="Start&lt;div style=&quot;font-size: 8px;&quot;&gt;MediaPipe&lt;/div&gt;" style="text;html=1;align=center;verticalAlign=middle;whiteSpace=wrap;rounded=0;fontSize=8;" parent="4cNkjvatPxcgbZi9Mzdt-3" vertex="1">
          <mxGeometry x="141.5" y="50" width="50" height="20" as="geometry" />
        </mxCell>
        <mxCell id="4cNkjvatPxcgbZi9Mzdt-30" style="edgeStyle=orthogonalEdgeStyle;rounded=0;orthogonalLoop=1;jettySize=auto;html=1;exitX=1;exitY=0.5;exitDx=0;exitDy=0;entryX=1.043;entryY=0.497;entryDx=0;entryDy=0;entryPerimeter=0;endSize=3;" parent="1" source="4cNkjvatPxcgbZi9Mzdt-7" target="cqbc1yN2gM6fxvFp73qe-1" edge="1">
          <mxGeometry relative="1" as="geometry">
            <Array as="points">
              <mxPoint x="440" y="405" />
              <mxPoint x="440" y="295" />
            </Array>
          </mxGeometry>
        </mxCell>
        <mxCell id="4cNkjvatPxcgbZi9Mzdt-31" style="edgeStyle=orthogonalEdgeStyle;rounded=0;orthogonalLoop=1;jettySize=auto;html=1;entryX=-0.045;entryY=0.497;entryDx=0;entryDy=0;entryPerimeter=0;endSize=3;" parent="1" source="4cNkjvatPxcgbZi9Mzdt-5" target="cqbc1yN2gM6fxvFp73qe-1" edge="1">
          <mxGeometry relative="1" as="geometry">
            <Array as="points">
              <mxPoint x="70" y="405" />
              <mxPoint x="70" y="295" />
            </Array>
          </mxGeometry>
        </mxCell>
        <mxCell id="4cNkjvatPxcgbZi9Mzdt-32" value="Tiles overlay" style="text;html=1;align=center;verticalAlign=middle;whiteSpace=wrap;rounded=0;fontSize=8;" parent="1" vertex="1">
          <mxGeometry x="110" y="270" width="60" height="30" as="geometry" />
        </mxCell>
        <mxCell id="4cNkjvatPxcgbZi9Mzdt-33" value="Notes played" style="text;html=1;align=center;verticalAlign=middle;whiteSpace=wrap;rounded=0;fontSize=8;" parent="1" vertex="1">
          <mxGeometry x="340" y="270" width="60" height="30" as="geometry" />
        </mxCell>
      </root>
    </mxGraphModel>
  </diagram>
</mxfile>
